<svg version="1.1" xmlns="http://www.w3.org/2000/svg" xmlns:xlink="http://www.w3.org/1999/xlink" width="172.51176" height="172.51176" viewBox="0,0,172.51176,172.51176"><defs><radialGradient cx="240" cy="180" r="86.25588" gradientUnits="userSpaceOnUse" id="color-1"><stop offset="0" stop-color="#31c3ff"/><stop offset="1" stop-color="#31c3ff" stop-opacity="0"/></radialGradient></defs><g transform="translate(-153.74412,-93.74412)"><g data-paper-data="{&quot;isPaintingLayer&quot;:true}" fill-rule="nonzero" stroke="none" stroke-width="0" stroke-linecap="butt" stroke-linejoin="miter" stroke-miterlimit="10" stroke-dasharray="" stroke-dashoffset="0" style="mix-blend-mode: normal"><path d="M153.74412,180c0,-47.6378 38.61806,-86.25588 86.25588,-86.25588c47.6378,0 86.25588,38.61806 86.25588,86.25588c0,47.6378 -38.61806,86.25588 -86.25588,86.25588c-47.6378,0 -86.25588,-38.61806 -86.25588,-86.25588z" fill="url(#color-1)"/><path d="M204.57745,180c0,-19.56333 15.85921,-35.42255 35.42255,-35.42255c19.56333,0 35.42255,15.85921 35.42255,35.42255c0,19.56333 -15.85921,35.42255 -35.42255,35.42255c-19.56333,0 -35.42255,-15.85921 -35.42255,-35.42255z" fill="#ffffff"/><path d="M217.07745,180c0,-12.65977 10.26277,-22.92255 22.92255,-22.92255c12.65977,0 22.92255,10.26277 22.92255,22.92255c0,12.65977 -10.26277,22.92255 -22.92255,22.92255c-12.65977,0 -22.92255,-10.26277 -22.92255,-22.92255z" fill="#31c2fe"/></g></g></svg>